<svg width="20" height="18" fill="none" xmlns="http://www.w3.org/2000/svg"><path d="M5.406 17.087h3.532v-3.612h2.124v3.612h3.533V.913h-9.19v16.174zm5.239-14.268h2.123v2.124h-2.123V2.819zm0 3.413h2.123v2.123h-2.123V6.232zm0 3.413h2.123v2.123h-2.123V9.645zM7.232 2.819h2.123v2.124H7.232V2.819zm0 3.413h2.123v2.123H7.232V6.232zm0 3.413h2.123v2.123H7.232V9.645zM15.42 2.362v11.436h1.364v3.289H20V2.362h-4.58zm2.917 9.883h-1.933v-1.933h1.933v1.933zm0-3.107h-1.933V7.204h1.933v1.934zm0-3.107h-1.933V4.097h1.933v1.934zM0 17.087h3.216v-3.289h1.365V2.362H0v14.725zm1.663-12.99h1.933v1.934H1.663V4.097zm0 3.107h1.933v1.934H1.663V7.204zm0 3.107h1.933v1.934H1.663V10.31z" fill="#fff"/></svg>