<svg width="49" height="39" fill="none" xmlns="http://www.w3.org/2000/svg"><path d="M4.625 12.022c.61.43 2.447 1.708 5.512 3.832 3.066 2.124 5.414 3.76 7.046 4.907.179.126.56.4 1.142.82a55.84 55.84 0 0 0 1.452 1.022c.385.26.851.552 1.398.874a8.11 8.11 0 0 0 1.547.725 4.26 4.26 0 0 0 1.344.242h.054c.413 0 .86-.08 1.345-.242.484-.16 1-.403 1.546-.725a28.375 28.375 0 0 0 1.398-.874c.386-.26.87-.6 1.452-1.022.583-.421.964-.694 1.143-.82 1.65-1.147 5.844-4.06 12.585-8.74a12.776 12.776 0 0 0 3.28-3.307c.879-1.29 1.318-2.643 1.318-4.06 0-1.183-.426-2.196-1.278-3.038-.852-.843-1.86-1.264-3.025-1.264H4.302c-1.38 0-2.442.466-3.186 1.398C.372 2.683 0 3.848 0 5.246c0 1.13.493 2.353 1.479 3.67.986 1.318 2.035 2.354 3.146 3.106z" fill="#fff"/><path d="M45.497 14.9c-5.879 3.979-10.343 7.071-13.39 9.277a63.368 63.368 0 0 1-2.488 1.76c-.636.422-1.483.852-2.54 1.291-1.058.44-2.044.659-2.958.659h-.055c-.914 0-1.9-.22-2.957-.659-1.058-.439-1.905-.869-2.542-1.29a63.615 63.615 0 0 1-2.487-1.761c-2.42-1.775-6.874-4.868-13.364-9.278A14.24 14.24 0 0 1 0 12.56v21.35c0 1.184.421 2.196 1.264 3.039.842.843 1.855 1.264 3.039 1.264h39.581c1.183 0 2.196-.421 3.039-1.264s1.264-1.855 1.264-3.039V12.56c-.771.86-1.667 1.64-2.69 2.34z" fill="#fff"/><circle cx="24.986" cy="19.984" r="1.785" fill="#fff"/></svg>