<svg width="67" height="50" fill="none" xmlns="http://www.w3.org/2000/svg"><path d="M66.653 6.974V27.15s-4.318.85-5.208.963c-.887.111-3.673 1.011-5.693-.93-3.115-2.985-14.181-13.99-14.181-13.99s-1.908-1.873-4.972-.255c-2.812 1.483-6.98 3.655-8.722 4.501-3.292 1.752-6.02-1.028-6.02-3.145 0-1.643 1.025-2.757 2.49-3.577C28.317 8.31 36.686 3.613 40.17 1.76 42.29.634 43.816.537 46.725 2.988c3.583 3.012 6.77 5.759 6.77 5.759s1.04.868 2.699.518c4.072-.861 10.459-2.291 10.459-2.291zM22.606 41.16c.536-1.377.357-2.917-.67-3.974-.924-.944-2.271-1.194-3.557-.9.36-1.274.161-2.63-.767-3.588-.926-.943-2.271-1.197-3.556-.9.356-1.273.158-2.63-.77-3.584-1.455-1.491-3.97-1.427-5.623.148-1.644 1.577-2.697 4.435-1.23 6.117 1.465 1.674 3.148.655 4.431.363-.357 1.273-1.426 2.457-.11 4.123 1.316 1.667 3.148.655 4.433.366-.359 1.268-1.381 2.57-.115 4.115 1.278 1.55 3.37.724 4.753.295-.533 1.372-1.675 2.85-.208 4.507 1.465 1.669 4.85.897 6.503-.68 1.65-1.578 1.808-4.078.357-5.575-1.001-1.026-2.494-1.265-3.87-.833zm30.17-10.497c-11.952-11.953-6.33-6.329-12.762-12.775 0 0-1.934-1.925-4.482-.807a262.1 262.1 0 0 0-5.824 2.668c-1.904.998-3.274 1.307-3.917 1.303-3.681-.024-6.667-2.983-6.667-6.66 0-2.385 1.266-4.462 3.155-5.64 2.656-1.839 8.77-5.09 8.77-5.09s-1.863-2.36-5.943-2.36c-4.079 0-12.6 5.582-12.6 5.582s-2.418 1.548-5.864.154L0 4.726v23.087s1.897.55 3.6 1.245a7.591 7.591 0 0 1 1.868-2.948c2.827-2.693 7.514-2.72 10.086-.072a6.364 6.364 0 0 1 1.591 2.827 6.442 6.442 0 0 1 2.73 1.664 6.35 6.35 0 0 1 1.594 2.822 6.467 6.467 0 0 1 2.73 1.667 6.523 6.523 0 0 1 1.686 3.091 6.534 6.534 0 0 1 2.848 1.707c1.546 1.588 2.094 3.743 1.762 5.82 0 0 .008 0 .01.005.025.033.958 1.073 1.54 1.66 1.139 1.14 3 1.14 4.143 0a2.941 2.941 0 0 0 0-4.144c-.041-.041-4.112-4.299-3.784-4.629.325-.328 5.511 5.069 5.608 5.167a2.937 2.937 0 0 0 4.14 0 2.935 2.935 0 0 0 0-4.14c-.055-.054-.289-.277-.375-.367 0 0-5.142-4.58-4.75-4.971.395-.394 6.782 5.566 6.793 5.566 1.148 1.034 2.916 1.026 4.02-.079 1.075-1.074 1.098-2.774.146-3.92-.02-.06-4.868-5.126-4.49-5.507.384-.386 5.18 4.553 5.19 4.563a2.938 2.938 0 0 0 4.142 0 2.944 2.944 0 0 0 0-4.146c-.016-.01-.036-.02-.051-.03z" fill="#fff"/></svg>